<?xml version="1.0" standalone="no"?>
<!DOCTYPE svg PUBLIC "-//W3C//DTD SVG 1.1//EN" "http://www.w3.org/Graphics/SVG/1.1/DTD/svg11.dtd" >
<svg xmlns="http://www.w3.org/2000/svg">
<metadata>Generated by IcoMoon</metadata>
<defs>
<font id="elucicons" horiz-adv-x="512">
<font-face units-per-em="512" ascent="480" descent="-32" />
<missing-glyph horiz-adv-x="512" />
<glyph unicode="&#x20;" d="" horiz-adv-x="256" />
<glyph unicode="&#xe600;" d="M480-32h-448c-17.696 0-32 14.304-32 32v320c0 17.696 14.304 32 32 32h448c17.696 0 32-14.304 32-32v-320c0-17.696-14.304-32-32-32zM17.76 410.624l46.24 69.376h128l46.24-69.376c9.824-14.72 3.456-26.624-14.24-26.624h-192c-17.696 0-24.064 11.904-14.24 26.624z" />
<glyph unicode="&#xe601;" d="M22.624 137.376l146.752-146.752c12.512-12.512 32.896-12.672 45.6-0.384l297.024 287.744v170.016c0 17.696-14.304 32-32 32h-160l-297.376-297.376c-12.512-12.512-12.512-32.736 0-45.248zM400 320c-26.496 0-48 21.504-48 48s21.504 48 48 48 48-21.504 48-48-21.504-48-48-48z" />
<glyph unicode="&#xe602;" d="M320 480c-106.048 0-192-85.952-192-192 0-106.016 85.952-192 192-192 106.016 0 192 86.016 192 192 0 106.048-85.984 192-192 192zM320 158.752c-70.688 0-128 57.312-128 128s57.312 128 128 128c70.656 0 128-57.312 128-128s-57.344-128-128-128zM22.624 9.376l18.752-18.752c12.512-12.512 32.736-12.512 45.248 0l105.376 105.376-64 64-105.376-105.376c-12.512-12.512-12.512-32.736 0-45.248z" />
<glyph unicode="&#xe603;" d="M502.624 233.376l-210.752 210.752c-12.512 12.512-32.736 12.512-45.248 0l-50.752-50.752c-12.48-12.512-12.48-32.736 0-45.248l73.376-73.376h-224c-17.664 0-32-14.336-32-32v-64c0-17.696 14.336-32 32-32h224l-73.376-73.376c-12.48-12.512-12.48-32.736 0-45.248l50.752-50.752c12.512-12.512 32.736-12.512 45.248 0l210.752 210.752c12.512 12.512 12.512 32.736 0 45.248z" />
<glyph unicode="&#xe604;" d="M265.376 425.376l-50.752-50.752c-12.512-12.512-12.512-32.736 0-45.248l41.376-41.376h-128v128c0 17.696-14.304 32-32 32h-64c-17.696 0-32-14.304-32-32v-224c0-17.696 14.304-32 32-32h224l-41.376-41.376c-12.512-12.512-12.512-32.736 0-45.248l50.752-50.752c12.512-12.512 32.736-12.512 45.248 0l178.752 178.752c12.512 12.512 12.512 32.736 0 45.248l-178.752 178.752c-12.512 12.512-32.736 12.512-45.248 0z" />
<glyph unicode="&#xe605;" d="M480 352h-448c-17.664 0-32 14.304-32 32v64c0 17.696 14.336 32 32 32h448c17.696 0 32-14.304 32-32v-64c0-17.696-14.304-32-32-32zM480 160h-448c-17.664 0-32 14.304-32 32v64c0 17.696 14.336 32 32 32h448c17.696 0 32-14.304 32-32v-64c0-17.696-14.304-32-32-32zM480-32h-448c-17.664 0-32 14.304-32 32v64c0 17.696 14.336 32 32 32h448c17.696 0 32-14.304 32-32v-64c0-17.696-14.304-32-32-32z" />
<glyph unicode="&#xe606;" d="M9.376 233.376l210.752 210.752c12.48 12.512 32.736 12.512 45.248 0l50.752-50.752c12.48-12.512 12.48-32.736 0-45.248l-73.376-73.376h224c17.664 0 32-14.336 32-32v-64c0-17.696-14.336-32-32-32h-224l73.376-73.376c12.48-12.512 12.48-32.736 0-45.248l-50.752-50.752c-12.512-12.512-32.768-12.512-45.248 0l-210.752 210.752c-12.512 12.512-12.512 32.736 0 45.248z" />
<glyph unicode="&#xe607;" d="M361.376 246.624l-146.752 146.752c-12.512 12.512-32.736 12.512-45.248 0l-18.752-18.752c-12.512-12.512-12.512-32.736 0-45.248l105.376-105.376-105.376-105.376c-12.512-12.512-12.512-32.736 0-45.248l18.752-18.752c12.512-12.512 32.768-12.48 45.28 0 34.016 34.048 99.456 99.456 146.752 146.752 12.48 12.512 12.48 32.736-0.032 45.248z" />
<glyph unicode="&#xe608;" d="M278.624 118.624l146.752 146.752c12.512 12.512 12.512 32.736 0 45.248l-18.752 18.752c-12.512 12.512-32.736 12.512-45.248 0l-105.376-105.376-105.376 105.376c-12.512 12.512-32.736 12.512-45.248 0l-18.752-18.752c-12.512-12.512-12.48-32.768 0-45.28 34.048-34.016 99.456-99.456 146.752-146.752 12.512-12.48 32.736-12.48 45.248 0.032z" />
<glyph unicode="&#xe609;" d="M64.002 127.99l256.004 256.004 96.007-96.007-256.004-256.004-96.007 96.007zM7.744-0.96c-4.288-17.12 6.144-27.552 23.296-23.296l96.96 24.256-96 96-24.256-96.96zM393.376 457.376c12.512 12.512 32.736 12.512 45.248 0l50.752-50.752c12.512-12.512 12.512-32.736 0-45.248l-41.376-41.376-96 96 41.376 41.376z" />
<glyph unicode="&#xe60a;" d="M512 288c0 88.384-114.624 160-256 160s-256-71.616-256-160c0-88.096 113.984-159.52 254.752-159.968-1.824-32.832-6.432-65.728-18.208-98.592-5.952-16.64 1.152-25.088 16.96-17.152 59.968 30.048 103.68 84.608 121.536 134.144 81.408 26.784 136.96 80.096 136.96 141.568z" />
<glyph unicode="&#xe60b;" d="M246.528 224c0-68.128-55.136-123.264-123.296-123.264-68.096 0-123.232 55.136-123.232 123.264s55.136 123.264 123.264 123.264c68.128 0 123.264-55.136 123.264-123.264zM512 224c0-68.128-55.136-123.264-123.264-123.264-68.16 0-123.296 55.136-123.296 123.264s55.136 123.264 123.296 123.264c68.128 0 123.264-55.136 123.264-123.264z" />
<glyph unicode="&#xe60c;" d="M483.744 480h-455.52c-15.584 0-28.224-12.64-28.224-28.256v-455.488c0-15.616 12.64-28.256 28.224-28.256h245.792v199.008h-67.008v76h67.008v57.536c0 66.112 39.872 102.464 98.88 102.464 28.256 0 53.024-1.952 60.128-2.88v-70.144l-41.92 0.032c-32.064 0-38.048-15.264-38.048-37.632v-49.376h76.736l-9.952-76h-66.816v-199.008h130.72c15.616 0 28.256 12.64 28.256 28.256v455.488c0 15.616-12.64 28.256-28.256 28.256z" />
<glyph unicode="&#xe60d;" d="M256 480c-141.152 0-256-114.848-256-256s114.848-256 256-256 256 114.848 256 256-114.848 256-256 256zM25.856 224c0 33.376 7.168 65.056 19.936 93.696l109.792-300.8c-76.8 37.248-129.728 116-129.728 207.104zM256-6.176c-22.592 0-44.416 3.328-65.024 9.408l69.056 200.672 70.752-193.824c0.48-1.152 1.024-2.176 1.664-3.2-23.936-8.448-49.632-13.056-76.448-13.056zM287.712 331.904c13.856 0.768 26.336 2.176 26.336 2.176 12.416 1.472 10.944 19.712-1.472 18.976 0 0-37.28-2.912-61.344-2.912-22.624 0-60.64 2.912-60.64 2.912-12.384 0.768-13.856-18.208-1.44-18.976 0 0 11.744-1.44 24.16-2.176l35.84-98.24-50.368-151.072-83.808 249.312c13.856 0.768 26.336 2.176 26.336 2.176 12.416 1.472 10.944 19.744-1.472 18.976 0 0-37.28-2.912-61.344-2.912-4.32 0-9.408 0.096-14.816 0.288 41.152 62.464 111.904 103.712 192.32 103.712 59.904 0 114.464-22.912 155.424-60.416-0.992 0.064-1.984 0.192-3.008 0.192-22.592 0-38.656-19.712-38.656-40.864 0-18.976 10.976-35.008 22.624-53.984 8.736-15.328 18.976-35.040 18.976-63.456 0-19.712-7.552-42.56-17.504-74.4l-22.976-76.704-83.168 247.392zM457.984 334.432c17.984-32.768 28.192-70.4 28.192-110.432 0-84.896-46.016-159.040-114.432-198.944l70.272 203.264c13.152 32.832 17.536 59.104 17.536 82.432-0.032 8.48-0.576 16.352-1.568 23.68z" />
<glyph unicode="&#xe60e;" d="M256 480c-141.376 0-256-114.592-256-256 0-104.8 63.040-194.88 153.248-234.464-0.704 17.888-0.16 39.328 4.448 58.784 4.928 20.8 32.928 139.488 32.928 139.488s-8.16 16.352-8.16 40.512c0 37.952 21.984 66.272 49.344 66.272 23.328 0 34.56-17.504 34.56-38.432 0-23.392-14.944-58.4-22.624-90.848-6.4-27.168 13.632-49.312 40.416-49.312 48.512 0 81.184 62.304 81.184 136.128 0 56.096-37.824 98.080-106.528 98.080-77.664 0-126.016-57.92-126.016-122.592 0-22.304 6.56-38.048 16.864-50.208 4.704-5.6 5.376-7.84 3.68-14.272-1.248-4.672-4.064-16.064-5.216-20.544-1.728-6.464-6.976-8.8-12.8-6.4-35.808 14.592-52.448 53.76-52.448 97.792 0 72.672 61.312 159.904 182.976 159.904 97.728 0 162.048-70.72 162.048-146.656 0-100.448-55.84-175.424-138.112-175.424-27.648 0-53.664 14.944-62.56 31.904 0 0-14.848-58.976-18.016-70.368-5.44-19.712-16.064-39.456-25.76-54.848 23.008-6.816 47.36-10.496 72.544-10.496 141.376 0 256 114.624 256 256 0 141.408-114.624 256-256 256z" />
<glyph unicode="&#xe60f;" d="M459.712 312.288c0-4.288 0.288-8.832 0.288-13.44 0-138.848-105.728-298.848-298.848-298.848-59.424 0-114.592 17.44-161.152 47.168 8.288-0.864 16.576-1.44 25.152-1.44 49.12 0 94.56 16.832 130.272 44.832-45.728 0.864-84.608 31.168-98.016 73.152 6.304-1.152 12.864-1.984 19.744-1.984 9.696 0 18.848 1.44 27.68 3.712-48 9.728-84.288 52-84.288 102.848v1.44c14.272-7.712 30.272-12.576 47.712-13.152-28.256 18.848-46.816 51.136-46.816 87.424 0 19.168 5.12 37.44 14.272 52.832 51.712-63.68 129.12-105.408 216.576-109.696-2.016 7.68-2.848 15.68-2.848 24 0 58.016 47.136 104.864 105.12 104.864 30.016 0 57.44-12.576 76.608-33.152 24 4.864 46.56 13.44 66.56 25.44-7.712-24.576-24.288-45.12-46.016-58.016 21.12 2.56 41.44 8.288 60.288 16.576-13.984-21.12-32-39.68-52.288-54.56z" />
<glyph unicode="&#xe610;" d="M506.88 326.368c0 0-4.992 35.264-20.352 50.816-19.456 20.384-41.28 20.512-51.328 21.696-71.616 5.184-179.104 5.184-179.104 5.184h-0.224c0 0-107.456 0-179.136-5.184-9.984-1.184-31.808-1.312-51.264-21.696-15.36-15.552-20.352-50.816-20.352-50.816s-5.12-41.44-5.12-82.88v-38.88c0-41.44 5.12-82.816 5.12-82.816s4.992-35.328 20.352-50.88c19.456-20.352 45.056-19.712 56.448-21.856 40.96-3.936 174.080-5.12 174.080-5.12s107.584 0.192 179.232 5.312c10.016 1.248 31.84 1.312 51.328 21.696 15.328 15.552 20.352 50.88 20.352 50.88s5.088 41.376 5.088 82.816v38.848c0 41.44-5.12 82.88-5.12 82.88zM203.36 157.568l-0.032 143.68 138.016-71.936-137.984-71.744z" />
<glyph unicode="&#xe611;" d="M231.84 433.888c4-2.528 8.544-6.208 13.568-11.008 4.768-4.992 9.536-11.136 14.144-18.496 4.416-6.88 8.352-15.008 11.744-24.384 2.784-9.44 4.224-20.384 4.224-32.928-0.384-22.944-5.44-41.312-15.168-55.136-4.736-6.688-9.792-12.8-15.136-18.496-5.92-5.632-12.192-11.36-18.88-17.184-3.808-4-7.328-8.512-10.56-13.504-3.808-5.184-5.728-11.264-5.728-18.176 0-6.688 1.952-12.192 5.856-16.576 3.36-4.192 6.56-7.872 9.696-11.008l21.728-17.792c13.472-11.136 25.28-23.328 35.456-36.672 9.6-13.568 14.56-31.328 14.944-53.248 0-31.136-13.696-58.688-41.024-82.688-28.416-24.864-69.344-37.76-122.88-38.56-44.8 0.448-78.24 10.016-100.352 28.736-22.304 17.472-33.472 38.496-33.472 62.848 0 11.872 3.616 25.12 10.88 39.68 7.072 14.624 19.776 27.424 38.24 38.496 20.704 11.872 42.464 19.808 65.28 23.744 22.56 3.328 41.312 5.216 56.256 5.664-4.608 6.048-8.704 12.608-12.352 19.552-4.192 6.688-6.304 14.752-6.304 24.256 0 5.632 0.8 10.368 2.4 14.112 1.408 4 2.72 7.68 3.904 11.072-7.264-0.864-14.080-1.248-20.544-1.248-34.048 0.384-59.968 11.168-77.856 32.256-18.688 19.616-28.032 42.496-28.032 68.608 0 31.488 13.248 60.128 39.712 85.824 18.176 15.008 37.088 24.864 56.672 29.44 19.392 3.936 37.6 5.952 54.592 5.952h127.904l-39.456-23.136h-39.456zM256.544 64.128c0 16.32-5.28 30.496-15.872 42.624-11.232 11.488-28.704 25.568-52.576 42.304-4.064 0.448-8.832 0.64-14.336 0.64-3.264 0.448-11.584 0-25.056-1.248-13.216-1.888-26.784-4.928-40.64-9.12-3.264-1.248-7.84-3.136-13.76-5.632-5.92-2.688-11.904-6.56-18.016-11.552-5.92-5.248-10.88-11.68-14.976-19.424-4.672-8.192-7.040-18.016-7.040-29.504 0-22.496 10.176-41.12 30.56-55.744 19.328-14.624 45.824-22.112 79.424-22.56 30.112 0.448 53.152 7.136 69.024 20.064 15.52 12.704 23.264 29.088 23.264 49.152zM167.328 252.448c16.832 0.64 30.88 6.688 42.080 18.176 5.44 8.192 8.896 16.512 10.464 25.12 0.928 8.576 1.408 15.744 1.408 21.632 0 25.312-6.432 50.88-19.328 76.64-6.080 12.352-14.016 22.368-23.904 30.112-10.080 7.328-21.696 11.2-34.816 11.616-17.28-0.416-31.712-7.424-43.2-21.056-9.696-14.176-14.336-30.112-13.92-47.68 0-23.264 6.752-47.424 20.32-72.512 6.56-11.744 15.040-21.696 25.376-29.888 10.368-8.096 22.208-12.16 35.52-12.16zM512 256.8h-1.664v0.32h-67.264v68.64h-39.392v-68.64h-67.68v-38.24h0.416v-1.44h67.264v-67.328h39.392v67.328h68.928z" />
<glyph unicode="&#xe612;" d="M128 32c0-35.346-28.654-64-64-64-35.346 0-64 28.654-64 64 0 35.346 28.654 64 64 64 35.346 0 64-28.654 64-64zM31.968 382.784c203.936-15.552 367.264-178.88 382.816-382.816 1.344-17.632 15.52-31.968 33.216-31.968h32c17.696 0 32.096 14.304 31.040 31.968-15.872 257.312-221.76 463.2-479.040 479.072-17.664 1.056-32-13.344-32-31.040v-32c0-17.696 14.336-31.872 31.968-33.216zM0 256v-32c0-17.696 14.4-31.744 31.904-34.24 98.048-14.080 175.776-91.808 189.856-189.856 2.496-17.504 16.544-31.904 34.24-31.904h32c17.696 0 32.16 14.368 30.432 31.968-15.008 151.232-135.296 271.456-286.496 286.464-17.6 1.728-31.936-12.736-31.936-30.432z" />
<glyph unicode="&#xe613;" d="M256 473.696c-141.344 0-256-114.624-256-256 0-113.088 73.376-209.056 175.104-242.912 12.8-2.336 17.472 5.568 17.472 12.352 0 6.048-0.224 22.144-0.352 43.52-71.232-15.456-86.208 34.304-86.208 34.304-11.648 29.6-28.448 37.472-28.448 37.472-23.264 15.872 1.792 15.52 1.792 15.52 25.696-1.792 39.2-26.368 39.2-26.368 22.848-39.136 59.904-27.808 74.496-21.248 2.304 16.544 8.96 27.808 16.256 34.208-56.832 6.464-116.608 28.416-116.608 126.496 0 27.968 9.984 50.816 26.336 68.704-2.624 6.496-11.424 32.544 2.496 67.744 0 0 21.504 6.912 70.4-26.208 20.448 5.664 42.304 8.544 64.096 8.64 21.76-0.096 43.616-2.976 64.096-8.64 48.864 33.12 70.304 26.208 70.304 26.208 13.984-35.232 5.184-61.248 2.56-67.712 16.416-17.92 26.304-40.736 26.304-68.704 0-98.336-59.872-119.968-116.896-126.304 9.216-7.904 17.408-23.52 17.408-47.392 0-34.208-0.32-61.856-0.32-70.208 0-6.848 4.608-14.816 17.6-12.32 101.632 33.856 174.912 129.792 174.912 242.848 0 141.376-114.624 256-256 256z" />
<glyph unicode="&#xe614;" d="M256-31.648c-141.152 0-256 114.688-256 255.68 0 140.928 114.848 255.616 256 255.616s256-114.688 256-255.616c0-140.992-114.848-255.68-256-255.68v0zM471.904 189.024c-7.456 2.336-67.68 20.288-136.224 9.312 28.64-78.496 40.256-142.4 42.496-155.68 49.088 33.12 83.968 85.6 93.728 146.368v0zM341.44 22.656c-3.296 19.2-15.968 85.952-46.656 165.632-0.512-0.192-0.96-0.352-1.44-0.512-123.328-42.944-167.616-128.352-171.552-136.384 37.088-28.864 83.68-46.080 134.208-46.080 30.304 0 59.168 6.176 85.44 17.344v0zM93.568 77.664c4.928 8.512 64.96 107.712 177.728 144.128 2.88 0.896 5.76 1.792 8.64 2.592-5.504 12.384-11.488 24.832-17.76 37.056-109.184-32.672-215.136-31.296-224.704-31.104-0.096-2.176-0.128-4.416-0.128-6.656 0-56.096 21.28-107.264 56.224-146.016v0zM41.984 268.416c9.76-0.128 99.872-0.512 202.144 26.624-36.256 64.32-75.328 118.368-81.088 126.24-61.152-28.8-106.88-85.12-121.056-152.864v0zM204.736 435.968c6.048-8.064 45.792-62.048 81.6-127.808 77.792 29.088 110.688 73.28 114.624 78.88-38.624 34.176-89.408 54.976-144.96 54.976-17.632 0-34.784-2.080-51.264-6.048v0zM425.28 361.792c-4.608-6.272-41.28-53.12-122.112-86.144 5.088-10.368 9.952-20.96 14.528-31.616 1.6-3.744 3.168-7.488 4.672-11.264 72.768 9.12 145.056-5.504 152.288-7.040-0.512 51.552-18.944 98.88-49.376 136.064v0z" />
<glyph unicode="&#xe615;" d="M256 164l-256 153.632v-253.632c0-17.696 14.304-32 32-32h448c17.696 0 32 14.304 32 32v253.632l-256-153.632zM256 220l256 153.568v10.432c0 17.696-14.304 32-32 32h-448c-17.696 0-32-14.304-32-32v-10.432l256-153.568z" />
</font>
</defs>
</svg>
